<mxfile host="app.diagrams.net" modified="2024-04-19T15:40:18.262Z" agent="Mozilla/5.0 (Windows NT 10.0; Win64; x64) AppleWebKit/537.36 (KHTML, like Gecko) Chrome/123.0.0.0 Safari/537.36" etag="52JUxLiSfe0Mcj58aj4j" version="23.1.4" type="device">
  <diagram name="Page-1" id="MrxK35F7xYWWhIQYF0tn">
    <mxGraphModel dx="851" dy="772" grid="1" gridSize="10" guides="1" tooltips="1" connect="1" arrows="1" fold="1" page="1" pageScale="1" pageWidth="850" pageHeight="1100" math="0" shadow="0">
      <root>
        <mxCell id="0" />
        <mxCell id="1" parent="0" />
        <mxCell id="kRNJUdQ0nYbcWAlS-Fuk-51" style="edgeStyle=orthogonalEdgeStyle;rounded=0;orthogonalLoop=1;jettySize=auto;html=1;exitX=1;exitY=0.5;exitDx=0;exitDy=0;entryX=0;entryY=0.5;entryDx=0;entryDy=0;" edge="1" parent="1" source="kRNJUdQ0nYbcWAlS-Fuk-41" target="kRNJUdQ0nYbcWAlS-Fuk-42">
          <mxGeometry relative="1" as="geometry" />
        </mxCell>
        <mxCell id="kRNJUdQ0nYbcWAlS-Fuk-41" value="Extension&lt;br&gt;Dowloader" style="rounded=0;whiteSpace=wrap;html=1;dashed=1;" vertex="1" parent="1">
          <mxGeometry x="300" y="70" width="80" height="60" as="geometry" />
        </mxCell>
        <mxCell id="kRNJUdQ0nYbcWAlS-Fuk-52" style="edgeStyle=orthogonalEdgeStyle;rounded=0;orthogonalLoop=1;jettySize=auto;html=1;exitX=1;exitY=0.5;exitDx=0;exitDy=0;entryX=0;entryY=0.5;entryDx=0;entryDy=0;" edge="1" parent="1" source="kRNJUdQ0nYbcWAlS-Fuk-42" target="kRNJUdQ0nYbcWAlS-Fuk-43">
          <mxGeometry relative="1" as="geometry" />
        </mxCell>
        <mxCell id="kRNJUdQ0nYbcWAlS-Fuk-42" value="Search" style="rounded=0;whiteSpace=wrap;html=1;" vertex="1" parent="1">
          <mxGeometry x="400" y="70" width="80" height="60" as="geometry" />
        </mxCell>
        <mxCell id="kRNJUdQ0nYbcWAlS-Fuk-53" style="edgeStyle=orthogonalEdgeStyle;rounded=0;orthogonalLoop=1;jettySize=auto;html=1;exitX=1;exitY=0.5;exitDx=0;exitDy=0;entryX=0;entryY=0.5;entryDx=0;entryDy=0;" edge="1" parent="1" source="kRNJUdQ0nYbcWAlS-Fuk-43" target="kRNJUdQ0nYbcWAlS-Fuk-49">
          <mxGeometry relative="1" as="geometry" />
        </mxCell>
        <mxCell id="kRNJUdQ0nYbcWAlS-Fuk-55" style="edgeStyle=orthogonalEdgeStyle;rounded=0;orthogonalLoop=1;jettySize=auto;html=1;exitX=0.25;exitY=1;exitDx=0;exitDy=0;entryX=0.5;entryY=0;entryDx=0;entryDy=0;" edge="1" parent="1" source="kRNJUdQ0nYbcWAlS-Fuk-43" target="kRNJUdQ0nYbcWAlS-Fuk-44">
          <mxGeometry relative="1" as="geometry" />
        </mxCell>
        <mxCell id="kRNJUdQ0nYbcWAlS-Fuk-56" style="edgeStyle=orthogonalEdgeStyle;rounded=0;orthogonalLoop=1;jettySize=auto;html=1;exitX=0.5;exitY=1;exitDx=0;exitDy=0;entryX=0.5;entryY=0;entryDx=0;entryDy=0;" edge="1" parent="1" source="kRNJUdQ0nYbcWAlS-Fuk-43" target="kRNJUdQ0nYbcWAlS-Fuk-45">
          <mxGeometry relative="1" as="geometry" />
        </mxCell>
        <mxCell id="kRNJUdQ0nYbcWAlS-Fuk-57" style="edgeStyle=orthogonalEdgeStyle;rounded=0;orthogonalLoop=1;jettySize=auto;html=1;exitX=0.75;exitY=1;exitDx=0;exitDy=0;entryX=0.5;entryY=0;entryDx=0;entryDy=0;" edge="1" parent="1" source="kRNJUdQ0nYbcWAlS-Fuk-43" target="kRNJUdQ0nYbcWAlS-Fuk-46">
          <mxGeometry relative="1" as="geometry" />
        </mxCell>
        <mxCell id="kRNJUdQ0nYbcWAlS-Fuk-43" value="Extension&lt;br&gt;Analyser" style="rounded=0;whiteSpace=wrap;html=1;" vertex="1" parent="1">
          <mxGeometry x="500" y="70" width="80" height="60" as="geometry" />
        </mxCell>
        <mxCell id="kRNJUdQ0nYbcWAlS-Fuk-44" value="Domain&lt;br&gt;Extraction" style="rounded=0;whiteSpace=wrap;html=1;" vertex="1" parent="1">
          <mxGeometry x="400" y="220" width="80" height="60" as="geometry" />
        </mxCell>
        <mxCell id="kRNJUdQ0nYbcWAlS-Fuk-45" value="Static&lt;br&gt;Analysis" style="rounded=0;whiteSpace=wrap;html=1;" vertex="1" parent="1">
          <mxGeometry x="500" y="220" width="80" height="60" as="geometry" />
        </mxCell>
        <mxCell id="kRNJUdQ0nYbcWAlS-Fuk-46" value="Dynamic&lt;br&gt;Analysis" style="rounded=0;whiteSpace=wrap;html=1;" vertex="1" parent="1">
          <mxGeometry x="600" y="220" width="80" height="60" as="geometry" />
        </mxCell>
        <mxCell id="kRNJUdQ0nYbcWAlS-Fuk-60" style="edgeStyle=orthogonalEdgeStyle;rounded=0;orthogonalLoop=1;jettySize=auto;html=1;exitX=1;exitY=0.5;exitDx=0;exitDy=0;entryX=0;entryY=0.5;entryDx=0;entryDy=0;" edge="1" parent="1" source="kRNJUdQ0nYbcWAlS-Fuk-47" target="kRNJUdQ0nYbcWAlS-Fuk-48">
          <mxGeometry relative="1" as="geometry" />
        </mxCell>
        <mxCell id="kRNJUdQ0nYbcWAlS-Fuk-47" value="zDNS" style="rounded=0;whiteSpace=wrap;html=1;" vertex="1" parent="1">
          <mxGeometry x="700" y="220" width="80" height="60" as="geometry" />
        </mxCell>
        <mxCell id="kRNJUdQ0nYbcWAlS-Fuk-61" style="edgeStyle=orthogonalEdgeStyle;rounded=0;orthogonalLoop=1;jettySize=auto;html=1;exitX=0.5;exitY=0;exitDx=0;exitDy=0;entryX=0.75;entryY=1;entryDx=0;entryDy=0;" edge="1" parent="1" source="kRNJUdQ0nYbcWAlS-Fuk-48" target="kRNJUdQ0nYbcWAlS-Fuk-49">
          <mxGeometry relative="1" as="geometry" />
        </mxCell>
        <mxCell id="kRNJUdQ0nYbcWAlS-Fuk-48" value="RDAP" style="rounded=0;whiteSpace=wrap;html=1;" vertex="1" parent="1">
          <mxGeometry x="800" y="220" width="80" height="60" as="geometry" />
        </mxCell>
        <mxCell id="kRNJUdQ0nYbcWAlS-Fuk-59" style="edgeStyle=orthogonalEdgeStyle;rounded=0;orthogonalLoop=1;jettySize=auto;html=1;exitX=0.25;exitY=1;exitDx=0;exitDy=0;entryX=0.5;entryY=0;entryDx=0;entryDy=0;startArrow=classic;startFill=1;" edge="1" parent="1" source="kRNJUdQ0nYbcWAlS-Fuk-49" target="kRNJUdQ0nYbcWAlS-Fuk-47">
          <mxGeometry relative="1" as="geometry" />
        </mxCell>
        <mxCell id="kRNJUdQ0nYbcWAlS-Fuk-49" value="Domain&amp;nbsp;" style="rounded=0;whiteSpace=wrap;html=1;" vertex="1" parent="1">
          <mxGeometry x="750" y="70" width="80" height="60" as="geometry" />
        </mxCell>
        <mxCell id="kRNJUdQ0nYbcWAlS-Fuk-50" value="DB" style="shape=cylinder3;whiteSpace=wrap;html=1;boundedLbl=1;backgroundOutline=1;size=15;" vertex="1" parent="1">
          <mxGeometry x="850" y="60" width="60" height="80" as="geometry" />
        </mxCell>
        <mxCell id="kRNJUdQ0nYbcWAlS-Fuk-54" style="edgeStyle=orthogonalEdgeStyle;rounded=0;orthogonalLoop=1;jettySize=auto;html=1;exitX=1;exitY=0.5;exitDx=0;exitDy=0;entryX=0;entryY=0.5;entryDx=0;entryDy=0;entryPerimeter=0;" edge="1" parent="1" source="kRNJUdQ0nYbcWAlS-Fuk-49" target="kRNJUdQ0nYbcWAlS-Fuk-50">
          <mxGeometry relative="1" as="geometry" />
        </mxCell>
      </root>
    </mxGraphModel>
  </diagram>
</mxfile>
